<?xml version="1.0" encoding="utf-8"?>
<!-- Generator: Adobe Illustrator 26.0.2, SVG Export Plug-In . SVG Version: 6.00 Build 0)  -->
<svg version="1.1" xmlns="http://www.w3.org/2000/svg" xmlns:xlink="http://www.w3.org/1999/xlink" x="0px" y="0px"
	 viewBox="0 0 1366 768" style="enable-background:new 0 0 1366 768;" xml:space="preserve">
<style type="text/css">
	.st0{fill:none;stroke:#ADC7D1;stroke-width:16;stroke-miterlimit:10;}
	.st1{fill:#4F6A77;stroke:#4F6A77;stroke-miterlimit:10;}
	.st2{fill:#2A424D;stroke:#2A424D;stroke-miterlimit:10;}
	.st3{fill:none;stroke:#000817;stroke-width:0.5;stroke-miterlimit:10;}
	.st4{fill:#324B5A;stroke:#324B5A;stroke-miterlimit:10;}
	.st5{fill:#E2736B;stroke:#E2736B;stroke-miterlimit:10;}
</style>
<g id="Layer_1">
	<g>
		<ellipse class="st0" cx="681" cy="451.5" rx="179" ry="175.5"/>
		<ellipse class="st0" cx="682.5" cy="451.5" rx="92.5" ry="163.5"/>
		<path class="st0" d="M681,276c0,117,0,234,0,351"/>
		<path class="st0" d="M520,375c107.67,0.33,215.33,0.67,323,1"/>
		<path class="st0" d="M502,457c119.33,0.67,238.67,1.33,358,2"/>
		<path class="st0" d="M526,539c103,0.33,206,0.67,309,1"/>
	</g>
</g>
<g id="Layer_3">
	<path class="st1" d="M681.5,134.5c0,30.67,0,61.33,0,92c-1.67,0-3.33,0-5,0c-3,0-6,0-9,0c-0.1,0-2,0-2,0c-15.58,0-38,3-38,3
		c-14.23,1.9-22.94,3.7-39,7c-12.65,2.6-0.44,0.48-17,5c-2.73,0.75-7.53,2.02-12,6c-0.89,0.79-1.56,1.5-2,2
		c-1.66-0.67-3.33-1.34-5-2c-17.76-7.07-35.44-13.73-53-20c0-1.67,0-3.33,0-5c2-0.67,4-1.33,6-2c1-0.67,2-1.33,3-2
		c2.12-0.92,5.24-2.3,9-4c13.77-6.24,23.43-11.17,35-17c9.32-4.7,18.67-9.33,28-14c6.96-3.48,30.55-15.26,59-29
		C650.34,149.27,664.6,142.44,681.5,134.5z"/>
	<path class="st2" d="M681.5,134.5c0,30.67,0,61.33,0,92c3.73-0.09,8.87-0.14,15,0c11.06,0.25,26.09,1.16,44,4
		c15.82,2.51,24.43,3.87,36,8c11.77,4.2,20.91,9.23,27,13c6.27-2.68,12.61-5.35,19-8c15.17-6.29,30.18-12.29,45-18
		C805.5,195.17,743.5,164.83,681.5,134.5z"/>
	<path class="st3" d="M728.5,133.5"/>
	<path class="st3" d="M681.5,134.5c0,0.33,0,0.67,0,1"/>
	<path class="st4" d="M553.5,316.5c0.33-21.33,0.67-42.67,1-64c0.6-0.68,1.63-1.77,3-3c2.06-1.84,6.52-5.41,14-8
		c25.32-8.78,58-12,58-12c18.11-1.78,33.57-3.26,55-3c13.37,0.16,22.74,0.92,36,2c26.9,2.19,47.51,5.36,61,10
		c12.62,4.34,23,11,23,11c1.32,0.85,2.37,1.57,3,2c0.33,21.67,0.67,43.33,1,65c-2.21-1.42-5.24-3.21-9-5c-2.38-1.14-5.19-2.33-10-4
		c-2.2-0.76-9.11-3.14-17-5c-20.88-4.93-46-7-46-7c-19.02-1.57-37.09-3.06-62-2c-26.18,1.11-45.07,4.4-60,7c0,0-16.69,2.91-32,8
		c-8.03,2.67-15,6-15,6C555.8,315.31,554.42,316.02,553.5,316.5z"/>
	<path class="st5" d="M515.5,214.5c-5,1-10,2-15,3c-2.67,2.67-5.33,5.33-8,8c0,29.67,0,59.33,0,89c-0.76,0.27-1.99,0.83-3,2
		c-2.33,2.7-2.33,7.3,0,10c1.01,1.17,2.24,1.73,3,2c-0.33,0.67-0.67,1.33-1,2c-5.33,9.33-10.67,18.67-16,28c14,0,28,0,42,0
		c-5.33-10-10.67-20-16-30c0.54-0.38,1.31-1.02,2-2c0.2-0.28,2.73-4.03,1-8c-1.11-2.53-3.29-3.67-4-4c0-4,0-8,0-12c0-25,0-50,0-75
		c0-1.67,0-3.33,0-5C505.5,219.83,510.5,217.17,515.5,214.5z"/>
</g>
</svg>
